<?xml version="1.0"?>
<svg width="2119" height="1414" xmlns="http://www.w3.org/2000/svg" xmlns:svg="http://www.w3.org/2000/svg" preserveAspectRatio="xMidYMid meet" version="1.0">

 <g class="layer">
  <title>Layer 1</title>
  <g fill="#f1dcc9" id="svg_1" transform="matrix(0.1, 0, 0, -0.1, 0, 0)">
   <path d="m8285,-1866c-184,-8 -559,-35 -685,-50c-985,-111 -2823,-531 -4885,-1116l-321,-90l-94,-172c-346,-630 -341,-618 -317,-614c12,3 175,50 362,106c2271,673 4367,1148 5520,1252c66,6 140,13 165,15c161,17 635,25 969,15c1419,-40 3076,-219 4351,-471c479,-94 775,-162 2000,-459c1115,-270 1704,-377 2645,-479c266,-29 825,-74 831,-67c1,0 -25,159 -57,351c-32,193 -59,353 -59,356c0,3 -118,9 -262,12c-611,15 -1215,79 -1808,193c-404,77 -623,129 -1915,453c-806,201 -1063,262 -1425,335c-1041,210 -2105,343 -3305,412c-251,15 -1486,27 -1710,18z" fill="#1e1f26" id="svg_2"/>
   <path d="m9100,-3471c-803,-46 -2586,-452 -5637,-1285c-150,-40 -327,-83 -395,-94c-259,-42 -609,-47 -960,-14l-67,7l-5,-34c-9,-61 -38,-830 -32,-837c10,-10 221,-20 426,-21c278,-1 765,-54 990,-107c252,-59 761,-253 1010,-385c395,-210 693,-521 765,-800c46,-176 58,-565 30,-972c-15,-217 -25,-283 -90,-572c-53,-239 -60,-290 -59,-455c1,-183 19,-265 86,-400c32,-63 62,-104 118,-161c173,-174 455,-325 1355,-724c788,-349 1067,-494 1235,-644c226,-202 374,-340 1005,-947c270,-259 538,-514 597,-566c100,-89 191,-158 209,-158c11,0 -12,63 -51,141c-173,342 -638,1122 -1963,3294c-773,1267 -1150,1906 -1133,1922c3,3 24,-8 48,-25c139,-94 737,-419 1343,-729c2069,-1057 4485,-2152 4934,-2235c30,-5 181,-54 335,-108c864,-301 1337,-410 2051,-470c529,-45 1294,-63 1671,-41c550,33 953,100 1361,227c503,156 875,371 1182,684c90,91 274,313 308,370c56,94 121,307 154,499c18,108 21,152 16,311c-13,474 -127,905 -301,1137c-160,212 -455,357 -851,418c-229,35 -657,28 -819,-14c-246,-64 -413,-228 -477,-468c-29,-109 -32,-334 -6,-410c48,-139 199,-310 352,-400c187,-111 363,-158 565,-150c214,8 351,54 626,213c61,35 120,64 131,64c48,0 100,-149 89,-254c-23,-205 -146,-457 -300,-610c-114,-114 -572,-400 -795,-496c-265,-115 -589,-190 -967,-224c-302,-28 -810,-16 -1094,24c-864,124 -1505,262 -2073,446c-97,32 -242,95 -485,211c-691,330 -1357,645 -1812,858c-85,40 -231,109 -324,154c-92,44 -169,81 -171,81c-5,0 -398,191 -580,282c-217,109 -255,130 -255,141c0,4 60,7 134,7c158,0 341,17 686,65c140,20 343,42 450,50c812,61 1511,165 2330,346c904,200 1460,379 2355,759c760,323 958,400 1031,400c72,0 1323,116 1330,123c1,1 9,175 18,387c9,212 18,426 22,476l6,91l-299,6c-567,13 -1118,70 -1743,183c-1360,243 -1751,337 -2610,624c-600,201 -759,243 -1610,425c-1151,246 -1891,351 -2710,385c-273,11 -478,11 -680,-1zm-1097,-1171c86,-90 134,-150 178,-223c252,-420 726,-744 1294,-884c436,-107 926,-102 1383,14c496,125 907,386 1130,717c66,97 104,130 247,212l119,69l256,-48c1024,-191 1225,-245 1955,-527c589,-227 809,-300 1121,-370c79,-18 140,-35 136,-39c-18,-15 -902,-337 -1427,-519c-1024,-356 -1829,-557 -2405,-599c-422,-32 -1695,-38 -2105,-12c-970,64 -1707,199 -2366,435c-360,128 -957,370 -1319,534c-494,223 -1187,577 -1159,592c8,4 111,35 229,68c118,34 447,127 730,207c713,203 968,272 1390,376c201,49 388,96 415,103c28,8 57,14 65,15c8,1 68,-54 133,-121z" fill="#1e1f26" id="svg_3"/>
  </g>
 </g>
</svg>