<?xml version="1.0"?>
<svg width="2119" height="1414" xmlns="http://www.w3.org/2000/svg" xmlns:svg="http://www.w3.org/2000/svg" preserveAspectRatio="xMidYMid meet" version="1.0">

 <g class="layer">
  <title>Layer 1</title>
  <g fill="#f1dcc9" id="svg_1" transform="matrix(0.1, 0, 0, -0.1, 0, 0)">
   <path d="m11630,-1816c-30,-2 -165,-8 -300,-14c-1126,-50 -2337,-198 -3420,-416c-362,-73 -619,-134 -1425,-335c-1291,-324 -1520,-378 -1915,-453c-597,-114 -1198,-178 -1807,-193c-145,-3 -263,-9 -263,-12c0,-3 -27,-163 -59,-356c-32,-192 -58,-351 -57,-351c2,-3 285,16 466,31c681,58 1429,167 2078,301c292,60 449,97 1246,290c1390,337 1917,444 2824,573c1381,198 2976,314 3858,281c154,-5 299,-12 324,-15c25,-2 99,-9 165,-15c1152,-104 3254,-580 5520,-1252c187,-55 350,-103 362,-106c24,-4 29,-16 -317,614l-94,172l-321,90c-2062,585 -3902,1005 -4885,1116c-343,39 -565,48 -1250,51c-371,1 -700,1 -730,-1z" fill="#1e1626" id="svg_2"/>
   <path d="m11390,-3421c-772,-33 -1550,-145 -2675,-386c-871,-186 -996,-219 -1605,-423c-859,-287 -1250,-381 -2610,-624c-625,-113 -1176,-170 -1743,-183l-299,-6l6,-91c4,-50 13,-264 22,-476c9,-212 17,-386 18,-387c7,-7 1258,-123 1330,-123c73,0 271,-77 1031,-400c441,-187 818,-333 1105,-426c560,-183 1409,-385 2095,-498c582,-97 927,-139 1485,-181c107,-8 310,-30 450,-50c345,-48 528,-65 686,-65c74,0 134,-3 134,-7c0,-11 -38,-32 -255,-141c-182,-91 -575,-282 -580,-282c-2,0 -79,-37 -171,-81c-93,-45 -239,-114 -324,-154c-455,-213 -1121,-528 -1812,-858c-243,-116 -388,-179 -485,-211c-568,-184 -1209,-322 -2073,-446c-284,-40 -792,-52 -1094,-24c-378,34 -702,109 -967,224c-223,96 -681,382 -795,496c-154,153 -277,405 -300,610c-11,105 41,254 89,254c11,0 70,-29 131,-64c275,-159 412,-205 626,-213c202,-8 378,39 565,150c153,90 304,261 352,400c26,75 23,301 -6,410c-63,240 -230,404 -477,468c-162,42 -590,49 -819,14c-396,-61 -691,-206 -851,-418c-174,-232 -288,-663 -301,-1137c-5,-159 -2,-203 16,-311c33,-192 98,-405 154,-499c65,-110 320,-395 463,-516c464,-397 1168,-651 2044,-738c519,-52 1295,-47 2015,14c714,60 1187,169 2051,470c154,54 305,103 335,108c449,83 2865,1178 4934,2235c606,310 1204,635 1343,729c24,17 45,28 48,25c17,-16 -360,-655 -1133,-1922c-1325,-2172 -1790,-2952 -1963,-3294c-39,-78 -62,-141 -51,-141c18,0 109,69 209,158c59,52 328,307 597,566c631,607 779,745 1005,947c168,150 447,295 1235,644c900,399 1182,550 1355,724c87,87 147,195 182,326c18,66 21,108 22,240c0,169 -10,240 -64,475c-76,328 -100,569 -100,995c1,426 38,599 168,780c191,267 461,473 842,640c264,117 631,247 810,289c225,53 712,106 990,107c205,1 416,11 426,21c6,7 -23,776 -32,837l-5,34l-67,-7c-351,-33 -701,-28 -960,14c-68,11 -245,54 -395,94c-2729,745 -4385,1135 -5329,1256c-301,38 -602,47 -1028,29zm2054,-1075c503,-119 972,-243 1766,-469c283,-80 612,-173 730,-207c118,-33 221,-64 229,-68c28,-15 -665,-369 -1159,-592c-362,-164 -959,-406 -1319,-534c-659,-236 -1396,-371 -2366,-435c-410,-26 -1683,-20 -2105,12c-576,42 -1381,243 -2405,599c-525,182 -1409,504 -1427,519c-4,4 57,21 136,39c284,64 569,155 956,307c858,336 1060,392 2120,590l256,48l119,-69c143,-82 181,-115 247,-212c270,-400 786,-681 1428,-777c265,-40 623,-39 870,1c660,108 1224,454 1507,926c41,69 93,133 178,222c65,69 121,126 124,126c2,0 54,-12 115,-26z" fill="#1e1626" id="svg_3"/>
  </g>
 </g>
</svg>